<mxfile host="app.diagrams.net" modified="2023-11-24T20:04:23.201Z" agent="Mozilla/5.0 (Windows NT 10.0; Win64; x64; rv:120.0) Gecko/20100101 Firefox/120.0" etag="rQpoORTCQ6R9ageRNngf" version="22.1.3" type="github">
  <diagram name="Page-1" id="f1b7ffb7-ca1e-a977-7cf5-a751b3c06c05">
    <mxGraphModel dx="397" dy="605" grid="1" gridSize="10" guides="1" tooltips="1" connect="1" arrows="1" fold="1" page="1" pageScale="1" pageWidth="826" pageHeight="1169" background="none" math="0" shadow="0">
      <root>
        <mxCell id="0" />
        <mxCell id="1" parent="0" />
        <mxCell id="3" value="" style="line;strokeWidth=1" parent="1" vertex="1">
          <mxGeometry x="20" y="60" width="500" height="10" as="geometry" />
        </mxCell>
        <mxCell id="4" value="" style="line;strokeWidth=1" parent="1" vertex="1">
          <mxGeometry x="20" y="90" width="500" height="10" as="geometry" />
        </mxCell>
        <mxCell id="32" value="" style="verticalLabelPosition=bottom;verticalAlign=top;strokeWidth=1;shape=mxgraph.mockup.graphics.iconGrid;strokeColor=#CCCCCC;gridSize=1,1;" parent="1" vertex="1">
          <mxGeometry x="20" y="1120" width="570" height="480" as="geometry" />
        </mxCell>
        <mxCell id="33" value="Article 3" style="text;spacingTop=-5;" parent="1" vertex="1">
          <mxGeometry x="20" y="1120" width="30" height="20" as="geometry" />
        </mxCell>
        <mxCell id="34" value="Lorem ipsum dolor sit amet, consectetur adipisicing elit, sed do eiusmod tempor incididunt ut labore et dolore magna aliqua. Ut enim ad minim veniam, quis nostrud exercitation ullamco laboris nisi ut aliquip ex ea commodo consequat. Duis aute irure dolor in reprehenderit in voluptate velit esse cillum dolore eu fugiat nulla pariatur. Excepteur sint occaecat cupidatat non proident, sunt in culpa qui officia deserunt mollit anim id est laborum.&#xa;Sed ut perspiciatis unde omnis iste natus error sit voluptatem accusantium doloremque laudantium, totam rem aperiam, eaque ipsa quae ab illo inventore veritatis et quasi architecto beatae vitae dicta sunt explicabo. Nemo enim ipsam voluptatem quia voluptas sit aspernatur aut odit aut fugit, sed quia consequuntur magni dolores eos qui ratione voluptatem sequi nesciunt. Neque porro quisquam est, qui dolorem ipsum quia dolor sit amet, consectetur, adipisci velit, sed quia non numquam eius modi tempora incidunt ut labore et dolore magnam aliquam quaerat voluptatem. Ut enim ad minima veniam, quis nostrum exercitationem ullam corporis suscipit laboriosam, nisi ut aliquid ex ea commodi consequatur? Quis autem vel eum iure reprehenderit qui in ea voluptate velit esse quam nihil molestiae consequatur, vel illum qui dolorem eum fugiat quo voluptas nulla pariatur?" style="text;spacingTop=-5;whiteSpace=wrap;align=left" parent="1" vertex="1">
          <mxGeometry x="20" y="1150" width="530" height="250" as="geometry" />
        </mxCell>
        <mxCell id="35" value="" style="verticalLabelPosition=bottom;verticalAlign=top;strokeWidth=1;shape=mxgraph.mockup.graphics.iconGrid;strokeColor=#CCCCCC;gridSize=1,1;" parent="1" vertex="1">
          <mxGeometry x="100" y="1370" width="360" height="200" as="geometry" />
        </mxCell>
        <mxCell id="36" value="Article&#xa;Picture" style="text;spacingTop=-5;align=center;verticalAlign=middle;fontSize=36;fontColor=#CCCCCC" parent="1" vertex="1">
          <mxGeometry x="100" y="1370" width="360" height="200" as="geometry" />
        </mxCell>
        <mxCell id="41" value="" style="verticalLabelPosition=bottom;verticalAlign=top;strokeWidth=1;shape=mxgraph.mockup.misc.rating;strokeColor=#999999;fillColor=#ffff00;emptyFillColor=#ffffff;grade=4;ratingScale=5;ratingStyle=star;" parent="1" vertex="1">
          <mxGeometry x="509.99999999999994" y="1085" width="77.5" height="10" as="geometry" />
        </mxCell>
        <mxCell id="42" value="Rate this article" style="text;spacingTop=-5;" parent="1" vertex="1">
          <mxGeometry x="410.00000000000006" y="1080" width="30" height="20" as="geometry" />
        </mxCell>
        <mxCell id="43" value="" style="verticalLabelPosition=bottom;verticalAlign=top;strokeWidth=1;shape=mxgraph.mockup.misc.rating;strokeColor=#999999;fillColor=#ffff00;emptyFillColor=#ffffff;grade=4;ratingScale=5;ratingStyle=star;" parent="1" vertex="1">
          <mxGeometry x="510.0000000000001" y="1584.9999999999998" width="77.5" height="10" as="geometry" />
        </mxCell>
        <mxCell id="44" value="Rate this article" style="text;spacingTop=-5;" parent="1" vertex="1">
          <mxGeometry x="410.00000000000017" y="1579.9999999999998" width="30" height="20" as="geometry" />
        </mxCell>
        <mxCell id="48" value="Tags: Tag1 Tag2 Tag3 Tag4" style="text;spacingTop=-5;" parent="1" vertex="1">
          <mxGeometry x="20" y="1080" width="210" height="20" as="geometry" />
        </mxCell>
        <mxCell id="49" value="Tags: Tag1 Tag2 Tag3 Tag4" style="text;spacingTop=-5;" parent="1" vertex="1">
          <mxGeometry x="20" y="1579.9999999999998" width="210" height="20" as="geometry" />
        </mxCell>
        <mxCell id="lr3jcFioJ_s2iosWUcW_-61" value="" style="shape=image;verticalLabelPosition=bottom;labelBackgroundColor=default;verticalAlign=top;aspect=fixed;imageAspect=0;image=data:image/png,iVBORw0KGgoAAAANSUhEUgAAASwAAAAsCAYAAADfCoXBAAAIeklEQVR4Xu2da2wUVRTHzxTa0NIHLaRLC7RUREQTglAxUUAwxER5GBAjwSiagKJC4jcUIyGYGJUvJuALTNQYKyqP0OKLiCKKiUgBMSBYoGyh2y7Qx7Kl23YX1nu23mXa7mNm587u3J1zCR92HnfO/Z87vzn33DtTxVFSGgQJiyKhzWQyKWArBXTfpH1PCP9Sbm5XHCUlUgILQLcatuor1FhSQDYF+tzRakhhQ/7/rUyfMVNSYMnmDrI3ngKqPhrvUNqftgooEAgEoKurC7q7u8Hb0QF+vz/UWgSaEpy+mYCVts6nhpEC8ilwGXxwSmmFk9AKO6AOLrS4ob29vRdaBCz5HEoWkwJ2UeCocgmq4RzU+E6Dy+UiYNnF8dROUkBWBTqgBzYqR+CrlqMELFmdSHaTAnZSoFZxw0aoJWDZyenUVlJAZgXeU/4iYMnsQLKdFLCTAvuUBgKWaIf7gn5o9neA93oP3GD/klEyIAPyBmXByMxcyFYyk3FJugYpkHQFzoGHgCVSdYRVXVdr0kDV33YE1/ghRQQtkU6luiylAC1rEOiO+p428FzvElij/qoKBg2BiqxC/SfSGaSABAoQsAQ66bjPnbLoijcDo6xJ2Q6BraKqSAHrKGBLYPmDN6A54A15YeTgPMhUMoR45JivSUg9RiuZnF1itAo6nxSwpAK2AlbN1VPwrbcODne6+jijMqcUHs4bD/PzbzfkJD3AOt7lBmdPO5RnDYNJQ8RGROkOrOcba0I+/HP8c4b8RSfLp4AtgHXB74E3Lh0IdfIF+RPgvqHlDBQFIW85ezxw8JoTqq+eBgTX2uKZMCazd5/eohVYm1r+gF2ef6BwUDa0XffBwoKJsHr4PXovF/X4dAVWE4uKN7j3h/y4znG/4QeMMMGpoqQpIBRY2KFK2BALS3cwEB52xWtNeaZ5SWKE1YuNe8DB7Hq5eDqMyyoKm6O292xPK7x56Tdwsza8O2peQtDSAiyMrF5yfQfrHbNhJgPnAQbL9e6f4Z3Sh8KRVnOgI2zjyMG58eQbsF8PsFCDlRdrIl5jXv5tsKKoMrSPw2KdY1bYx7oNM3ACv77L74XdY5caqIlOlVkBYcDa6TkJW1oPw/cVT4X0eLV5H+z1ntGkzSvFM2BRwR2ajtV7EA4fAsEgvD9qPgxWfb9kK7O1ia2XwhuQFzwOj8fj8Hi9RQuwalgk90nbMdhR/ni4+kedX8LThZNZxDABljZsZ6C/CaxlbDv+11P0AmtBfRU8O3wqy+fdhONRXzOgrbgdoaUG2wej5ycdWugXu8LqUOdFTe6fljNa03GpOqiBpUDKWArESBEGLP4UtlKEhTmrDe5fYFv5Y30iK7QVhxZY1MDC3xhpLXF+ndCQQwuw9ERYPzDgf8rgVlW2uA9M4jk8EWBVVywdACGE+paW2pRDC2GJUEUbsWxlNq1gIOV9LZ4esu9HYG26cihmM1aPmAZWANaC85/D5tK5A8CEsPqi/W9Yw4ITI0UosIwYYsa5+FQuZUPB11RRFL9ONGDh/tcZzFzsJtEbZWkBFtbPc1j4QTL8GFm0HBZGWhhxJQtYaNszF3bBx2MWhmGQamghrA53NsJHrUfCQ8FHzlfB1OzSAQ8bM/qQFerkwPqsbFFEc55s2AlWARaCaZXrmz7Qwm1vXzkY2ma0pC2wcOnCvWe2wlslD8IDuRUDdIoFrJ866mFN0174/dYVupY8aAUWGvNjx1k2EfArS/LPgDm54yL6MdnAwohlu+cELC64s489qYLWC+yBg0BfXlgJKxurQxEW2ljb2RT6bZdZQpmAhR1HDS38LQpWWJcwYOHMzV7vWVjr6A35qtqPw4muy5qAujB/YmiGTmTBZPui89siDgfxOhxYkYYWfFi4c+wSXcl3PcBC+5axaOZTFs1Em5VMBbCi+YBDi0OD57TMinTwenuu/gvrimfD1JwSwKgKC8+f3V33oWFgtWt8K2EYe3sglUU2YKmhhTkrEZEV19+2wOI3BCZycYq8MmdUeBhkJ2BhR+gPg2g3Z/+olEc6kfJfRm9wBBJP+PO68PqYc+Q5LaMR1jn2KtUqNoMcq2xmM8a3pPhVJ1mBhZEVRluRclqJ9g9hwErUALPOizckVN8EtT4XqKfwkzEk1BJh7b9WH5o0QKDOGjpwWBtNOz1Jd6xDywwgh4QaIhz6opcZ8GvtZkNAzEGqC1/egNv05hjN6mtm1ysbsNQ5q0g5LSN6pS2wUJRYSfdYopmddMdrxwMWT8xnsNeGbrB8nJ7FpXqBFQ9akdZA8RlYsxZwRkqs23UtlkzAipRgFwktocCy2sLRWMsaogHL7GUN/LqxgKVl6UMs4CYCrGjQSgWs0BaeM8O1aXPzJrBZW09ophCL6IjOyBM/GefKtKyBzxD214VDq3rsE4YkEwYs2RaORlItGQtHtQAr3uLSeB5PFFj9oYXDZEx8qyFhdmSlbps6z4jbEV583ZzT3wZmviERT+Nk7k+XhaMiNBMGLN7ZrbRwlA+9or2aoxYwWa/maAFWqiIsbhtGVXvYKneElTq3h/txqLa8aEpS3+NTR+4iOj3VIa8CQoFlVRms9vIzB2msZQ1GXpA2EmFZ1YdkFymACtgCWNzVVvq8DNqEQz8c5kQriX6ChoBFN3e6KmArYHEnmvUBP/riaLreJtQuqyhgS2CZJT59090sZaleUqBXAQKWwJ5AfzVHoJhUFSkQQQECluBuQX+XULCgVB0poFKAgEXdgRQgBaRRgIAljavIUFKAFCBgUR8gBUgBaRQgYEnjKjKUFCAFCFjUB0gBUkAaBQhY0riKDCUFSAECFvUBUoAUkEYB5a4pc/A7/1RIAVKAFLC8AkpZ2aTg8BHF0ORyWt5YMpAUIAXsrQABy97+p9aTAlIp8B8NHzjW/TH6EAAAAABJRU5ErkJggg==;" vertex="1" parent="1">
          <mxGeometry x="20" y="67" width="204.55" height="30" as="geometry" />
        </mxCell>
        <mxCell id="lr3jcFioJ_s2iosWUcW_-67" value="" style="group;spacingTop=-5;" vertex="1" connectable="0" parent="1">
          <mxGeometry x="20" y="120" width="500" height="700" as="geometry" />
        </mxCell>
        <mxCell id="13" value="Wrapper" style="verticalLabelPosition=middle;verticalAlign=middle;strokeWidth=1;shape=mxgraph.mockup.graphics.iconGrid;strokeColor=#CCCCCC;gridSize=1,1;fontFamily=Courier New;fontStyle=3;fontColor=#CCCCCC;labelBackgroundColor=default;labelPosition=center;align=center;fontSize=36;spacingTop=0;" parent="lr3jcFioJ_s2iosWUcW_-67" vertex="1">
          <mxGeometry width="500" height="700" as="geometry" />
        </mxCell>
        <mxCell id="lr3jcFioJ_s2iosWUcW_-63" value="Short break" style="rounded=1;html=1;shadow=0;dashed=0;whiteSpace=wrap;fontSize=10;fillColor=#666666;align=center;strokeColor=#4D4D4D;fontColor=#ffffff;" vertex="1" parent="lr3jcFioJ_s2iosWUcW_-67">
          <mxGeometry x="198" y="20" width="105.5" height="16.88" as="geometry" />
        </mxCell>
        <mxCell id="lr3jcFioJ_s2iosWUcW_-64" value="Long Break" style="rounded=1;html=1;shadow=0;dashed=0;whiteSpace=wrap;fontSize=10;fillColor=#666666;align=center;strokeColor=#4D4D4D;fontColor=#ffffff;" vertex="1" parent="lr3jcFioJ_s2iosWUcW_-67">
          <mxGeometry x="341" y="20" width="105.5" height="16.88" as="geometry" />
        </mxCell>
        <mxCell id="lr3jcFioJ_s2iosWUcW_-66" value="Task" style="rounded=1;html=1;shadow=0;dashed=0;whiteSpace=wrap;fontSize=10;fillColor=#999999;align=center;strokeColor=#666666;fontColor=#ffffff;strokeWidth=2;" vertex="1" parent="lr3jcFioJ_s2iosWUcW_-67">
          <mxGeometry x="53" y="20" width="105.5" height="16.88" as="geometry" />
        </mxCell>
        <mxCell id="50" value="Timer" style="verticalLabelPosition=middle;verticalAlign=middle;strokeWidth=1;shape=mxgraph.mockup.graphics.iconGrid;strokeColor=#CCCCCC;gridSize=1,1;fontFamily=Courier New;fontColor=#CCCCCC;fontStyle=3;spacingTop=-5;fillColor=default;labelPosition=center;align=center;labelBackgroundColor=default;fontSize=36;" parent="lr3jcFioJ_s2iosWUcW_-67" vertex="1">
          <mxGeometry x="50" y="50" width="400" height="270" as="geometry" />
        </mxCell>
        <mxCell id="58" value="List" style="verticalLabelPosition=middle;verticalAlign=middle;strokeWidth=1;shape=mxgraph.mockup.graphics.iconGrid;strokeColor=#CCCCCC;gridSize=1,1;fontColor=#CCCCCC;labelBackgroundColor=default;labelPosition=center;align=center;fontFamily=Courier New;fontStyle=3;fontSize=36;" parent="lr3jcFioJ_s2iosWUcW_-67" vertex="1">
          <mxGeometry x="50" y="380" width="400" height="300" as="geometry" />
        </mxCell>
        <mxCell id="lr3jcFioJ_s2iosWUcW_-75" value="" style="group" vertex="1" connectable="0" parent="lr3jcFioJ_s2iosWUcW_-67">
          <mxGeometry x="60" y="390" width="380" height="220" as="geometry" />
        </mxCell>
        <mxCell id="lr3jcFioJ_s2iosWUcW_-69" value="" style="strokeWidth=1;shadow=0;dashed=0;align=center;html=1;shape=mxgraph.mockup.forms.rrect;rSize=0;strokeColor=#999999;fillColor=#ffffff;" vertex="1" parent="lr3jcFioJ_s2iosWUcW_-75">
          <mxGeometry width="380" height="220" as="geometry" />
        </mxCell>
        <mxCell id="lr3jcFioJ_s2iosWUcW_-71" value="Most matching task" style="strokeWidth=1;shadow=0;dashed=0;align=center;html=1;shape=mxgraph.mockup.forms.anchor;fontSize=17;fontColor=#666666;align=left;spacingLeft=5;resizeWidth=1;whiteSpace=wrap;" vertex="1" parent="lr3jcFioJ_s2iosWUcW_-69">
          <mxGeometry width="380" height="20" relative="1" as="geometry">
            <mxPoint y="31" as="offset" />
          </mxGeometry>
        </mxCell>
        <mxCell id="lr3jcFioJ_s2iosWUcW_-72" value="Near matching task" style="strokeWidth=1;shadow=0;dashed=0;align=center;html=1;shape=mxgraph.mockup.forms.anchor;fontSize=17;fontColor=#666666;align=left;spacingLeft=5;resizeWidth=1;whiteSpace=wrap;" vertex="1" parent="lr3jcFioJ_s2iosWUcW_-69">
          <mxGeometry width="380" height="20" relative="1" as="geometry">
            <mxPoint y="51" as="offset" />
          </mxGeometry>
        </mxCell>
        <mxCell id="lr3jcFioJ_s2iosWUcW_-73" value="Less matching task" style="strokeWidth=1;shadow=0;dashed=0;align=center;html=1;shape=mxgraph.mockup.forms.rrect;rSize=0;fontSize=17;fontColor=#666666;align=left;spacingLeft=5;fillColor=#ddeeff;strokeColor=none;resizeWidth=1;whiteSpace=wrap;" vertex="1" parent="lr3jcFioJ_s2iosWUcW_-69">
          <mxGeometry width="380" height="20" relative="1" as="geometry">
            <mxPoint y="71" as="offset" />
          </mxGeometry>
        </mxCell>
        <mxCell id="lr3jcFioJ_s2iosWUcW_-74" value="Spaghetti on the wall" style="strokeWidth=1;shadow=0;dashed=0;align=center;html=1;shape=mxgraph.mockup.forms.anchor;fontSize=17;fontColor=#666666;align=left;spacingLeft=5;resizeWidth=1;whiteSpace=wrap;" vertex="1" parent="lr3jcFioJ_s2iosWUcW_-69">
          <mxGeometry width="380" height="20" relative="1" as="geometry">
            <mxPoint y="91" as="offset" />
          </mxGeometry>
        </mxCell>
        <mxCell id="lr3jcFioJ_s2iosWUcW_-68" value="Task to add" style="strokeWidth=1;shadow=0;dashed=0;align=center;html=1;shape=mxgraph.mockup.forms.searchBox;strokeColor=#999999;mainText=;strokeColor2=#008cff;fontColor=#666666;fontSize=17;align=left;spacingLeft=3;whiteSpace=wrap;" vertex="1" parent="lr3jcFioJ_s2iosWUcW_-75">
          <mxGeometry width="380" height="30" as="geometry" />
        </mxCell>
        <mxCell id="lr3jcFioJ_s2iosWUcW_-76" value="" style="sketch=0;html=1;aspect=fixed;strokeColor=none;shadow=0;align=center;fillColor=#2D9C5E;verticalAlign=top;labelPosition=center;verticalLabelPosition=bottom;shape=mxgraph.gcp2.check" vertex="1" parent="lr3jcFioJ_s2iosWUcW_-75">
          <mxGeometry x="350.75" y="2" width="31.25" height="25" as="geometry" />
        </mxCell>
        <mxCell id="lr3jcFioJ_s2iosWUcW_-77" value="" style="html=1;verticalLabelPosition=bottom;align=center;labelBackgroundColor=#ffffff;verticalAlign=top;strokeWidth=2;strokeColor=#0080F0;shadow=0;dashed=0;shape=mxgraph.ios7.icons.alarm_clock;" vertex="1" parent="lr3jcFioJ_s2iosWUcW_-67">
          <mxGeometry x="214" y="80" width="72" height="80" as="geometry" />
        </mxCell>
      </root>
    </mxGraphModel>
  </diagram>
</mxfile>
